nColumns=28
nRows=66
DataType=double
version=3
OpenSimVersion=4.1
endheader
time	ground_force_1_vx	ground_force_1_vy	ground_force_1_vz	ground_force_1_px	ground_force_1_py	ground_force_1_pz	ground_force_1_mx	ground_force_1_my	ground_force_1_mz	ground_force_2_vx	ground_force_2_vy	ground_force_2_vz	ground_force_2_px	ground_force_2_py	ground_force_2_pz	ground_force_2_mx	ground_force_2_my	ground_force_2_mz	ground_force_3_vx	ground_force_3_vy	ground_force_3_vz	ground_force_3_px	ground_force_3_py	ground_force_3_pz	ground_force_3_mx	ground_force_3_my	ground_force_3_mz
1.29	-16.6237	86.2002	-17.9688	-0.337089	0.006	-0.450468	0	0.048144	0	-24.1207	138.673	28.1162	-0.335146	0.006	-0.74986	0	0.998417	0	0	0	0	0.00166566	0	0.00027558	0	0	0
1.3	-87.5521	869.706	-107.097	-0.297912	0.006	-0.452586	0	-1.33372	0	-67.8535	921.585	77.6686	-0.310323	0.006	-0.749653	0	2.32822	0	0	0	0	0.00166566	0	0.00027558	0	0	0
1.31	-164.504	1506.56	-134.9	-0.283619	0.006	-0.455806	0	-3.8045	0	-104.643	1301.83	14.1243	-0.299697	0.006	-0.745363	0	4.44698	0	0	0	0	0.00166566	0	0.00027558	0	0	0
1.32	-167.743	882.996	-4.57078	-0.277635	0.006	-0.462391	0	-0.088181	0	-92.6677	649.848	-42.4872	-0.297748	0.006	-0.739041	0	2.12828	0	0	0	0	0.00166566	0	0.00027558	0	0	0
1.33	-80.5755	202.875	38.7386	-0.267127	0.006	-0.470624	0	2.24531	0	-95.4563	217.744	5.65326	-0.263363	0.006	-0.7433	0	1.77179	0	0	0	0	0.00166566	0	0.00027558	0	0	0
1.34	0	0	0	0.00166566	0	0.00027558	0	0	0	-144.406	179.488	40.8966	-0.21388	0.006	-0.75498	0	1.03877	0	0	0	0	0.00166566	0	0.00027558	0	0	0
1.35	-109.355	119.449	-26.5125	-0.198346	0.006	-0.441487	0	-0.437585	0	-205.445	324.852	36.4238	-0.219697	0.006	-0.747912	0	1.78057	0	0	0	0	0.00166566	0	0.00027558	0	0	0
1.36	-226.716	347.486	-45.1302	-0.20633	0.006	-0.452462	0	-2.1	0	-179.677	487.361	3.32368	-0.232354	0.006	-0.741246	0	3.19727	0	0	0	0	0.00166566	0	0.00027558	0	0	0
1.37	-186.416	450.139	5.21988	-0.212975	0.006	-0.463169	0	-2.13792	0	-115.125	609.67	-1.79055	-0.241145	0.006	-0.740407	0	4.42947	0	0	0	0	0.00166566	0	0.00027558	0	0	0
1.38	-107.994	534.472	19.4758	-0.223298	0.006	-0.466161	0	-3.03405	0	-76.8744	661.085	10.4846	-0.243828	0.006	-0.742021	0	4.87828	0	0	0	0	0.00166566	0	0.00027558	0	0	0
1.39	-52.6386	597.349	-6.74754	-0.230739	0.006	-0.462934	0	-4.13992	0	-72.429	640.297	19.9267	-0.24082	0.006	-0.744037	0	5.28122	0	0	0	0	0.00166566	0	0.00027558	0	0	0
1.4	-36.4865	547.018	-19.8797	-0.231142	0.006	-0.459885	0	-4.50277	0	-80.4654	580.313	23.0117	-0.233311	0.006	-0.745762	0	5.82323	0	0	0	0	0.00166566	0	0.00027558	0	0	0
1.41	-48.1692	441.712	-12.7712	-0.224713	0.006	-0.458405	0	-4.74448	0	-90.2886	531.451	22.6429	-0.223314	0.006	-0.747058	0	6.37207	0	0	0	0	0.00166566	0	0.00027558	0	0	0
1.42	-61.7901	374.492	0.496583	-0.216597	0.006	-0.458874	0	-5.10041	0	-103.76	514.663	23.8688	-0.213998	0.006	-0.748084	0	6.44985	0	0	0	0	0.00166566	0	0.00027558	0	0	0
1.43	-60.8282	366.759	9.10256	-0.213589	0.006	-0.460336	0	-5.26189	0	-111.37	520.846	27.0711	-0.208156	0.006	-0.748999	0	6.04349	0	0	0	0	0.00166566	0	0.00027558	0	0	0
1.44	-49.3592	389.591	8.73731	-0.214251	0.006	-0.460683	0	-5.18879	0	-104.629	537.558	24.8227	-0.206205	0.006	-0.748871	0	5.90794	0	0	0	0	0.00166566	0	0.00027558	0	0	0
1.45	-38.7866	417.402	5.08631	-0.214926	0.006	-0.460811	0	-5.31239	0	-88.6379	556.055	15.8638	-0.206326	0.006	-0.747955	0	6.3224	0	0	0	0	0.00166566	0	0.00027558	0	0	0
1.46	-30.3429	449.287	8.39411	-0.215686	0.006	-0.462493	0	-5.88633	0	-73.8723	567.794	8.87714	-0.206274	0.006	-0.747498	0	6.87287	0	0	0	0	0.00166566	0	0.00027558	0	0	0
1.47	-22.9886	478.658	15.6058	-0.216187	0.006	-0.464858	0	-6.67893	0	-67.3989	572.728	7.71807	-0.204924	0.006	-0.747717	0	7.26609	0	0	0	0	0.00166566	0	0.00027558	0	0	0
1.48	-23.8519	496.405	18.5483	-0.214547	0.006	-0.4661	0	-7.33221	0	-66.7069	574.611	8.79082	-0.202895	0.006	-0.748139	0	7.58093	0	0	0	0	0.00166566	0	0.00027558	0	0	0
1.49	-35.778	497.94	15.748	-0.2103	0.006	-0.466394	0	-7.76084	0	-67.0106	575.898	8.35659	-0.201271	0.006	-0.748336	0	7.96115	0	0	0	0	0.00166566	0	0.00027558	0	0	0
1.5	-50.8493	492.841	14.7363	-0.205316	0.006	-0.466998	0	-8.06085	0	-67.0768	579.575	5.44109	-0.200454	0.006	-0.748226	0	8.57661	0	0	0	0	0.00166566	0	0.00027558	0	0	0
1.51	-57.7577	495.992	18.0737	-0.20239	0.006	-0.468118	0	-8.41602	0	-66.3225	589.908	2.15756	-0.200084	0.006	-0.747955	0	9.21407	0	0	0	0	0.00166566	0	0.00027558	0	0	0
1.52	-56.2396	507.287	20.4101	-0.20143	0.006	-0.469175	0	-8.73918	0	-63.2339	605.493	0.437646	-0.200341	0.006	-0.747592	0	9.73227	0	0	0	0	0.00166566	0	0.00027558	0	0	0
1.53	-53.4723	521.452	18.7299	-0.200737	0.006	-0.469442	0	-8.91884	0	-58.3179	618.759	-0.434838	-0.200894	0.006	-0.747234	0	10.2241	0	0	0	0	0.00166566	0	0.00027558	0	0	0
1.54	-52.7375	533.568	15.8132	-0.199653	0.006	-0.469176	0	-8.98786	0	-54.998	625.749	-2.1195	-0.200981	0.006	-0.746797	0	10.7382	0	0	0	0	0.00166566	0	0.00027558	0	0	0
1.55	-52.1061	540.432	14.4393	-0.198559	0.006	-0.468769	0	-9.14994	0	-54.5125	628.159	-4.41661	-0.200546	0.006	-0.746451	0	11.1811	0	0	0	0	0.00166566	0	0.00027558	0	0	0
1.56	-51.2763	541.866	14.2687	-0.197469	0.006	-0.468429	0	-9.41188	0	-54.0576	629.33	-4.83971	-0.199854	0.006	-0.746488	0	11.3691	0	0	0	0	0.00166566	0	0.00027558	0	0	0
1.57	-51.9926	538.54	13.6982	-0.19592	0.006	-0.468082	0	-9.68347	0	-51.3112	630.952	-2.08718	-0.199121	0.006	-0.746812	0	11.2314	0	0	0	0	0.00166566	0	0.00027558	0	0	0
1.58	-54.0335	532.865	13.2426	-0.193857	0.006	-0.468251	0	-9.98408	0	-46.8161	632.575	1.90081	-0.198317	0.006	-0.747362	0	10.8969	0	0	0	0	0.00166566	0	0.00027558	0	0	0
1.59	-54.7531	526.603	14.4433	-0.19178	0.006	-0.468845	0	-10.3034	0	-43.1955	630.775	5.10631	-0.196963	0.006	-0.747897	0	10.547	0	0	0	0	0.00166566	0	0.00027558	0	0	0
1.6	-53.3602	519.636	16.3408	-0.189772	0.006	-0.469617	0	-10.5426	0	-41.5694	622.01	6.98962	-0.194817	0.006	-0.74845	0	10.2593	0	0	0	0	0.00166566	0	0.00027558	0	0	0
1.61	-51.6131	513.287	16.518	-0.187782	0.006	-0.470214	0	-10.5885	0	-40.9816	606.664	8.15885	-0.192587	0.006	-0.749038	0	10.0268	0	0	0	0	0.00166566	0	0.00027558	0	0	0
1.62	-49.3375	505.82	14.7848	-0.185846	0.006	-0.470373	0	-10.4364	0	-40.373	588.4	8.91454	-0.190524	0.006	-0.749522	0	9.7682	0	0	0	0	0.00166566	0	0.00027558	0	0	0
1.63	-46.7297	495.491	12.2106	-0.183839	0.006	-0.470455	0	-10.1705	0	-38.3035	570.732	9.23469	-0.188862	0.006	-0.749937	0	9.45135	0	0	0	0	0.00166566	0	0.00027558	0	0	0
1.64	-43.7923	483.427	9.5727	-0.181903	0.006	-0.470642	0	-9.89684	0	-34.0834	554.896	9.469	-0.187662	0.006	-0.750311	0	9.04963	0	0	0	0	0.00166566	0	0.00027558	0	0	0
1.65	-39.827	470.976	7.07751	-0.179935	0.006	-0.470999	0	-9.61845	0	-28.6761	540.56	10.2253	-0.18665	0.006	-0.750869	0	8.55808	0	0	0	0	0.00166566	0	0.00027558	0	0	0
1.66	-34.4848	460.188	4.9803	-0.177717	0.006	-0.471275	0	-9.33715	0	-22.5988	526.326	11.4127	-0.185401	0.006	-0.751611	0	8.03702	0	0	0	0	0.00166566	0	0.00027558	0	0	0
1.67	-30.2381	451.602	2.448	-0.174464	0.006	-0.471146	0	-8.94291	0	-15.2852	509.777	11.8387	-0.183992	0.006	-0.752273	0	7.55242	0	0	0	0	0.00166566	0	0.00027558	0	0	0
1.68	-29.0313	440.208	-0.994349	-0.169946	0.006	-0.470516	0	-8.27101	0	-6.93511	490.876	11.3679	-0.182607	0.006	-0.752758	0	7.07599	0	0	0	0	0.00166566	0	0.00027558	0	0	0
1.69	-28.0743	427.131	-3.86877	-0.165216	0.006	-0.469915	0	-7.54981	0	0.782253	473.984	11.4419	-0.181338	0.006	-0.753341	0	6.52055	0	0	0	0	0.00166566	0	0.00027558	0	0	0
1.7	-24.9833	418.073	-6.0584	-0.160601	0.006	-0.46942	0	-6.96209	0	6.14798	462.493	12.9223	-0.179906	0.006	-0.753904	0	5.87242	0	0	0	0	0.00166566	0	0.00027558	0	0	0
1.71	-21.2879	414.539	-8.9797	-0.155461	0.006	-0.468911	0	-6.38304	0	8.29628	455.162	14.2844	-0.177765	0.006	-0.754243	0	5.22388	0	0	0	0	0.00166566	0	0.00027558	0	0	0
1.72	-19.3369	414.16	-11.5172	-0.149536	0.006	-0.468545	0	-5.8683	0	8.0979	448.913	14.9342	-0.175153	0.006	-0.75426	0	4.68169	0	0	0	0	0.00166566	0	0.00027558	0	0	0
1.73	-18.5465	414.314	-12.1152	-0.143823	0.006	-0.468652	0	-5.59198	0	6.84976	442.24	15.6366	-0.172477	0.006	-0.753947	0	4.30059	0	0	0	0	0.00166566	0	0.00027558	0	0	0
1.74	-18.1	412.635	-11.5124	-0.138481	0.006	-0.468911	0	-5.4803	0	4.82708	435.237	16.1616	-0.169669	0.006	-0.753615	0	4.05167	0	0	0	0	0.00166566	0	0.00027558	0	0	0
1.75	-18.3671	411.768	-10.7663	-0.133321	0.006	-0.468935	0	-5.42403	0	2.0124	429.729	16.6299	-0.166852	0.006	-0.753251	0	3.8117	0	0	0	0	0.00166566	0	0.00027558	0	0	0
1.76	-19.9986	414.524	-10.305	-0.128711	0.006	-0.468906	0	-5.3882	0	-0.906002	427.33	17.4614	-0.164055	0.006	-0.752822	0	3.5428	0	0	0	0	0.00166566	0	0.00027558	0	0	0
1.77	-22.0225	419.967	-9.88019	-0.125241	0.006	-0.468934	0	-5.4326	0	-3.61463	427.041	18.1861	-0.161402	0.006	-0.752352	0	3.35742	0	0	0	0	0.00166566	0	0.00027558	0	0	0
1.78	-23.7256	425.356	-9.94767	-0.122486	0.006	-0.468999	0	-5.4503	0	-5.92744	426.873	18.172	-0.158664	0.006	-0.751665	0	3.22514	0	0	0	0	0.00166566	0	0.00027558	0	0	0
1.79	-26.0249	430.5	-10.5444	-0.119845	0.006	-0.468885	0	-5.33264	0	-9.40593	427.137	17.8322	-0.15616	0.006	-0.750733	0	3.07465	0	0	0	0	0.00166566	0	0.00027558	0	0	0
1.8	-28.6245	436.974	-11.6245	-0.117372	0.006	-0.468408	0	-5.15065	0	-15.147	428.955	17.7109	-0.153599	0.006	-0.749865	0	2.91921	0	0	0	0	0.00166566	0	0.00027558	0	0	0
1.81	-31.8671	444.574	-13.4852	-0.114895	0.006	-0.467755	0	-4.88736	0	-21.7963	431.678	18.1053	-0.151212	0.006	-0.74942	0	2.71824	0	0	0	0	0.00166566	0	0.00027558	0	0	0
1.82	-35.637	452.531	-15.6072	-0.112713	0.006	-0.466907	0	-4.56526	0	-28.844	434.583	18.6968	-0.149046	0.006	-0.748879	0	2.44453	0	0	0	0	0.00166566	0	0.00027558	0	0	0
1.83	-40.3882	460.496	-17.0688	-0.110741	0.006	-0.466167	0	-4.34862	0	-36.484	438.071	19.5106	-0.147269	0.006	-0.748546	0	2.17366	0	0	0	0	0.00166566	0	0.00027558	0	0	0
1.84	-46.9354	468.55	-17.7225	-0.108812	0.006	-0.465545	0	-4.20097	0	-44.8627	441.605	20.436	-0.145714	0.006	-0.748411	0	1.9655	0	0	0	0	0.00166566	0	0.00027558	0	0	0
1.85	-54.4658	475.719	-17.8391	-0.107133	0.006	-0.46489	0	-4.08359	0	-53.7711	444.022	20.7004	-0.144089	0.006	-0.74815	0	1.83732	0	0	0	0	0.00166566	0	0.00027558	0	0	0
1.86	-62.6427	481.251	-17.9861	-0.105662	0.006	-0.464212	0	-3.93661	0	-63.3156	444.677	20.1632	-0.142644	0.006	-0.747764	0	1.80602	0	0	0	0	0.00166566	0	0.00027558	0	0	0
1.87	-71.3039	483.881	-18.4529	-0.104239	0.006	-0.463393	0	-3.64951	0	-73.1923	441.844	19.5818	-0.14105	0.006	-0.747525	0	1.72865	0	0	0	0	0.00166566	0	0.00027558	0	0	0
1.88	-79.575	481.349	-19.865	-0.102767	0.006	-0.46234	0	-3.21503	0	-81.1902	431.159	19.9645	-0.139326	0.006	-0.747627	0	1.50321	0	0	0	0	0.00166566	0	0.00027558	0	0	0
1.89	-85.8339	468.599	-22.1711	-0.101358	0.006	-0.460725	0	-2.56918	0	-82.7217	404.85	21.3578	-0.137572	0.006	-0.748192	0	1.12182	0	0	0	0	0.00166566	0	0.00027558	0	0	0
1.9	-84.7596	436.106	-24.1497	-0.0998963	0.006	-0.458675	0	-1.66094	0	-71.6352	353.523	22.3479	-0.13518	0.006	-0.749558	0	0.692099	0	0	0	0	0.00166566	0	0.00027558	0	0	0
1.91	-71.4358	376.722	-23.7653	-0.0981183	0.006	-0.456081	0	-0.78786	0	-44.5378	269.562	20.3814	-0.132053	0.006	-0.751303	0	0.498644	0	0	0	0	0.00166566	0	0.00027558	0	0	0
1.92	-44.0689	288.27	-19.498	-0.0960163	0.006	-0.452523	0	-0.459054	0	-10.1289	155.032	14.5241	-0.125753	0.006	-0.751781	0	0.648833	0	0	0	0	0.00166566	0	0.00027558	0	0	0
1.93	-9.69067	173.898	-12.4429	-0.0929813	0.006	-0.448325	0	-0.542962	0	8.41465	46.4588	8.32026	-0.101722	0.006	-0.741943	0	0.585849	0	0	0	0	0.00166566	0	0.00027558	0	0	0
1.94	11.6593	62.139	-4.97351	-0.0868753	0.006	-0.44519	0	-0.430414	0	0	0	0	0.00166566	0	0.00027558	0	0	0	0	0	0	0.00166566	0	0.00027558	0	0	0
